<?xml version="1.0" encoding="utf-8" standalone="no"?>
<!DOCTYPE svg PUBLIC "-//W3C//DTD SVG 1.1//EN"
  "http://www.w3.org/Graphics/SVG/1.1/DTD/svg11.dtd">
<svg xmlns:xlink="http://www.w3.org/1999/xlink" width="624.316875pt" height="339.428906pt" viewBox="0 0 624.316875 339.428906" xmlns="http://www.w3.org/2000/svg" version="1.1">
 <metadata>
  <rdf:RDF xmlns:dc="http://purl.org/dc/elements/1.1/" xmlns:cc="http://creativecommons.org/ns#" xmlns:rdf="http://www.w3.org/1999/02/22-rdf-syntax-ns#">
   <cc:Work>
    <dc:type rdf:resource="http://purl.org/dc/dcmitype/StillImage"/>
    <dc:date>2024-12-08T13:21:03.930315</dc:date>
    <dc:format>image/svg+xml</dc:format>
    <dc:creator>
     <cc:Agent>
      <dc:title>Matplotlib v3.7.2, https://matplotlib.org/</dc:title>
     </cc:Agent>
    </dc:creator>
   </cc:Work>
  </rdf:RDF>
 </metadata>
 <defs>
  <style type="text/css">*{stroke-linejoin: round; stroke-linecap: butt}</style>
 </defs>
 <g id="figure_1">
  <g id="patch_1">
   <path d="M 0 339.428906 
L 624.316875 339.428906 
L 624.316875 0 
L 0 0 
z
" style="fill: #ffffff"/>
  </g>
  <g id="axes_1">
   <g id="patch_2">
    <path d="M 59.116875 284.4 
L 617.116875 284.4 
L 617.116875 7.2 
L 59.116875 7.2 
z
" style="fill: #ffffff"/>
   </g>
   <g id="matplotlib.axis_1">
    <g id="xtick_1">
     <g id="line2d_1">
      <path d="M 75.016468 284.4 
L 75.016468 7.2 
" clip-path="url(#pbb488ec402)" style="fill: none; stroke: #cccccc; stroke-linecap: round"/>
     </g>
     <g id="text_1">
      <!-- 0 -->
      <g style="fill: #262626" transform="translate(69.767405 306.437422) scale(0.165 -0.165)">
       <defs>
        <path id="DejaVuSans-30" d="M 2034 4250 
Q 1547 4250 1301 3770 
Q 1056 3291 1056 2328 
Q 1056 1369 1301 889 
Q 1547 409 2034 409 
Q 2525 409 2770 889 
Q 3016 1369 3016 2328 
Q 3016 3291 2770 3770 
Q 2525 4250 2034 4250 
z
M 2034 4750 
Q 2819 4750 3233 4129 
Q 3647 3509 3647 2328 
Q 3647 1150 3233 529 
Q 2819 -91 2034 -91 
Q 1250 -91 836 529 
Q 422 1150 422 2328 
Q 422 3509 836 4129 
Q 1250 4750 2034 4750 
z
" transform="scale(0.015625)"/>
       </defs>
       <use xlink:href="#DejaVuSans-30"/>
      </g>
     </g>
    </g>
    <g id="xtick_2">
     <g id="line2d_2">
      <path d="M 169.656902 284.4 
L 169.656902 7.2 
" clip-path="url(#pbb488ec402)" style="fill: none; stroke: #cccccc; stroke-linecap: round"/>
     </g>
     <g id="text_2">
      <!-- 500 -->
      <g style="fill: #262626" transform="translate(153.909715 306.437422) scale(0.165 -0.165)">
       <defs>
        <path id="DejaVuSans-35" d="M 691 4666 
L 3169 4666 
L 3169 4134 
L 1269 4134 
L 1269 2991 
Q 1406 3038 1543 3061 
Q 1681 3084 1819 3084 
Q 2600 3084 3056 2656 
Q 3513 2228 3513 1497 
Q 3513 744 3044 326 
Q 2575 -91 1722 -91 
Q 1428 -91 1123 -41 
Q 819 9 494 109 
L 494 744 
Q 775 591 1075 516 
Q 1375 441 1709 441 
Q 2250 441 2565 725 
Q 2881 1009 2881 1497 
Q 2881 1984 2565 2268 
Q 2250 2553 1709 2553 
Q 1456 2553 1204 2497 
Q 953 2441 691 2322 
L 691 4666 
z
" transform="scale(0.015625)"/>
       </defs>
       <use xlink:href="#DejaVuSans-35"/>
       <use xlink:href="#DejaVuSans-30" x="63.623047"/>
       <use xlink:href="#DejaVuSans-30" x="127.246094"/>
      </g>
     </g>
    </g>
    <g id="xtick_3">
     <g id="line2d_3">
      <path d="M 264.297336 284.4 
L 264.297336 7.2 
" clip-path="url(#pbb488ec402)" style="fill: none; stroke: #cccccc; stroke-linecap: round"/>
     </g>
     <g id="text_3">
      <!-- 1000 -->
      <g style="fill: #262626" transform="translate(243.301086 306.437422) scale(0.165 -0.165)">
       <defs>
        <path id="DejaVuSans-31" d="M 794 531 
L 1825 531 
L 1825 4091 
L 703 3866 
L 703 4441 
L 1819 4666 
L 2450 4666 
L 2450 531 
L 3481 531 
L 3481 0 
L 794 0 
L 794 531 
z
" transform="scale(0.015625)"/>
       </defs>
       <use xlink:href="#DejaVuSans-31"/>
       <use xlink:href="#DejaVuSans-30" x="63.623047"/>
       <use xlink:href="#DejaVuSans-30" x="127.246094"/>
       <use xlink:href="#DejaVuSans-30" x="190.869141"/>
      </g>
     </g>
    </g>
    <g id="xtick_4">
     <g id="line2d_4">
      <path d="M 358.937771 284.4 
L 358.937771 7.2 
" clip-path="url(#pbb488ec402)" style="fill: none; stroke: #cccccc; stroke-linecap: round"/>
     </g>
     <g id="text_4">
      <!-- 1500 -->
      <g style="fill: #262626" transform="translate(337.941521 306.437422) scale(0.165 -0.165)">
       <use xlink:href="#DejaVuSans-31"/>
       <use xlink:href="#DejaVuSans-35" x="63.623047"/>
       <use xlink:href="#DejaVuSans-30" x="127.246094"/>
       <use xlink:href="#DejaVuSans-30" x="190.869141"/>
      </g>
     </g>
    </g>
    <g id="xtick_5">
     <g id="line2d_5">
      <path d="M 453.578205 284.4 
L 453.578205 7.2 
" clip-path="url(#pbb488ec402)" style="fill: none; stroke: #cccccc; stroke-linecap: round"/>
     </g>
     <g id="text_5">
      <!-- 2000 -->
      <g style="fill: #262626" transform="translate(432.581955 306.437422) scale(0.165 -0.165)">
       <defs>
        <path id="DejaVuSans-32" d="M 1228 531 
L 3431 531 
L 3431 0 
L 469 0 
L 469 531 
Q 828 903 1448 1529 
Q 2069 2156 2228 2338 
Q 2531 2678 2651 2914 
Q 2772 3150 2772 3378 
Q 2772 3750 2511 3984 
Q 2250 4219 1831 4219 
Q 1534 4219 1204 4116 
Q 875 4013 500 3803 
L 500 4441 
Q 881 4594 1212 4672 
Q 1544 4750 1819 4750 
Q 2544 4750 2975 4387 
Q 3406 4025 3406 3419 
Q 3406 3131 3298 2873 
Q 3191 2616 2906 2266 
Q 2828 2175 2409 1742 
Q 1991 1309 1228 531 
z
" transform="scale(0.015625)"/>
       </defs>
       <use xlink:href="#DejaVuSans-32"/>
       <use xlink:href="#DejaVuSans-30" x="63.623047"/>
       <use xlink:href="#DejaVuSans-30" x="127.246094"/>
       <use xlink:href="#DejaVuSans-30" x="190.869141"/>
      </g>
     </g>
    </g>
    <g id="xtick_6">
     <g id="line2d_6">
      <path d="M 548.218639 284.4 
L 548.218639 7.2 
" clip-path="url(#pbb488ec402)" style="fill: none; stroke: #cccccc; stroke-linecap: round"/>
     </g>
     <g id="text_6">
      <!-- 2500 -->
      <g style="fill: #262626" transform="translate(527.222389 306.437422) scale(0.165 -0.165)">
       <use xlink:href="#DejaVuSans-32"/>
       <use xlink:href="#DejaVuSans-35" x="63.623047"/>
       <use xlink:href="#DejaVuSans-30" x="127.246094"/>
       <use xlink:href="#DejaVuSans-30" x="190.869141"/>
      </g>
     </g>
    </g>
    <g id="text_7">
     <!-- Raman Shift, $cm^{-1}$ -->
     <g style="fill: #262626" transform="translate(253.426875 328.485469) scale(0.18 -0.18)">
      <defs>
       <path id="DejaVuSans-52" d="M 2841 2188 
Q 3044 2119 3236 1894 
Q 3428 1669 3622 1275 
L 4263 0 
L 3584 0 
L 2988 1197 
Q 2756 1666 2539 1819 
Q 2322 1972 1947 1972 
L 1259 1972 
L 1259 0 
L 628 0 
L 628 4666 
L 2053 4666 
Q 2853 4666 3247 4331 
Q 3641 3997 3641 3322 
Q 3641 2881 3436 2590 
Q 3231 2300 2841 2188 
z
M 1259 4147 
L 1259 2491 
L 2053 2491 
Q 2509 2491 2742 2702 
Q 2975 2913 2975 3322 
Q 2975 3731 2742 3939 
Q 2509 4147 2053 4147 
L 1259 4147 
z
" transform="scale(0.015625)"/>
       <path id="DejaVuSans-61" d="M 2194 1759 
Q 1497 1759 1228 1600 
Q 959 1441 959 1056 
Q 959 750 1161 570 
Q 1363 391 1709 391 
Q 2188 391 2477 730 
Q 2766 1069 2766 1631 
L 2766 1759 
L 2194 1759 
z
M 3341 1997 
L 3341 0 
L 2766 0 
L 2766 531 
Q 2569 213 2275 61 
Q 1981 -91 1556 -91 
Q 1019 -91 701 211 
Q 384 513 384 1019 
Q 384 1609 779 1909 
Q 1175 2209 1959 2209 
L 2766 2209 
L 2766 2266 
Q 2766 2663 2505 2880 
Q 2244 3097 1772 3097 
Q 1472 3097 1187 3025 
Q 903 2953 641 2809 
L 641 3341 
Q 956 3463 1253 3523 
Q 1550 3584 1831 3584 
Q 2591 3584 2966 3190 
Q 3341 2797 3341 1997 
z
" transform="scale(0.015625)"/>
       <path id="DejaVuSans-6d" d="M 3328 2828 
Q 3544 3216 3844 3400 
Q 4144 3584 4550 3584 
Q 5097 3584 5394 3201 
Q 5691 2819 5691 2113 
L 5691 0 
L 5113 0 
L 5113 2094 
Q 5113 2597 4934 2840 
Q 4756 3084 4391 3084 
Q 3944 3084 3684 2787 
Q 3425 2491 3425 1978 
L 3425 0 
L 2847 0 
L 2847 2094 
Q 2847 2600 2669 2842 
Q 2491 3084 2119 3084 
Q 1678 3084 1418 2786 
Q 1159 2488 1159 1978 
L 1159 0 
L 581 0 
L 581 3500 
L 1159 3500 
L 1159 2956 
Q 1356 3278 1631 3431 
Q 1906 3584 2284 3584 
Q 2666 3584 2933 3390 
Q 3200 3197 3328 2828 
z
" transform="scale(0.015625)"/>
       <path id="DejaVuSans-6e" d="M 3513 2113 
L 3513 0 
L 2938 0 
L 2938 2094 
Q 2938 2591 2744 2837 
Q 2550 3084 2163 3084 
Q 1697 3084 1428 2787 
Q 1159 2491 1159 1978 
L 1159 0 
L 581 0 
L 581 3500 
L 1159 3500 
L 1159 2956 
Q 1366 3272 1645 3428 
Q 1925 3584 2291 3584 
Q 2894 3584 3203 3211 
Q 3513 2838 3513 2113 
z
" transform="scale(0.015625)"/>
       <path id="DejaVuSans-20" transform="scale(0.015625)"/>
       <path id="DejaVuSans-53" d="M 3425 4513 
L 3425 3897 
Q 3066 4069 2747 4153 
Q 2428 4238 2131 4238 
Q 1616 4238 1336 4038 
Q 1056 3838 1056 3469 
Q 1056 3159 1242 3001 
Q 1428 2844 1947 2747 
L 2328 2669 
Q 3034 2534 3370 2195 
Q 3706 1856 3706 1288 
Q 3706 609 3251 259 
Q 2797 -91 1919 -91 
Q 1588 -91 1214 -16 
Q 841 59 441 206 
L 441 856 
Q 825 641 1194 531 
Q 1563 422 1919 422 
Q 2459 422 2753 634 
Q 3047 847 3047 1241 
Q 3047 1584 2836 1778 
Q 2625 1972 2144 2069 
L 1759 2144 
Q 1053 2284 737 2584 
Q 422 2884 422 3419 
Q 422 4038 858 4394 
Q 1294 4750 2059 4750 
Q 2388 4750 2728 4690 
Q 3069 4631 3425 4513 
z
" transform="scale(0.015625)"/>
       <path id="DejaVuSans-68" d="M 3513 2113 
L 3513 0 
L 2938 0 
L 2938 2094 
Q 2938 2591 2744 2837 
Q 2550 3084 2163 3084 
Q 1697 3084 1428 2787 
Q 1159 2491 1159 1978 
L 1159 0 
L 581 0 
L 581 4863 
L 1159 4863 
L 1159 2956 
Q 1366 3272 1645 3428 
Q 1925 3584 2291 3584 
Q 2894 3584 3203 3211 
Q 3513 2838 3513 2113 
z
" transform="scale(0.015625)"/>
       <path id="DejaVuSans-69" d="M 603 3500 
L 1178 3500 
L 1178 0 
L 603 0 
L 603 3500 
z
M 603 4863 
L 1178 4863 
L 1178 4134 
L 603 4134 
L 603 4863 
z
" transform="scale(0.015625)"/>
       <path id="DejaVuSans-66" d="M 2375 4863 
L 2375 4384 
L 1825 4384 
Q 1516 4384 1395 4259 
Q 1275 4134 1275 3809 
L 1275 3500 
L 2222 3500 
L 2222 3053 
L 1275 3053 
L 1275 0 
L 697 0 
L 697 3053 
L 147 3053 
L 147 3500 
L 697 3500 
L 697 3744 
Q 697 4328 969 4595 
Q 1241 4863 1831 4863 
L 2375 4863 
z
" transform="scale(0.015625)"/>
       <path id="DejaVuSans-74" d="M 1172 4494 
L 1172 3500 
L 2356 3500 
L 2356 3053 
L 1172 3053 
L 1172 1153 
Q 1172 725 1289 603 
Q 1406 481 1766 481 
L 2356 481 
L 2356 0 
L 1766 0 
Q 1100 0 847 248 
Q 594 497 594 1153 
L 594 3053 
L 172 3053 
L 172 3500 
L 594 3500 
L 594 4494 
L 1172 4494 
z
" transform="scale(0.015625)"/>
       <path id="DejaVuSans-2c" d="M 750 794 
L 1409 794 
L 1409 256 
L 897 -744 
L 494 -744 
L 750 256 
L 750 794 
z
" transform="scale(0.015625)"/>
       <path id="DejaVuSans-Oblique-63" d="M 3431 3366 
L 3316 2797 
Q 3109 2947 2876 3022 
Q 2644 3097 2394 3097 
Q 2119 3097 1870 3000 
Q 1622 2903 1453 2725 
Q 1184 2453 1037 2087 
Q 891 1722 891 1331 
Q 891 859 1127 628 
Q 1363 397 1844 397 
Q 2081 397 2348 469 
Q 2616 541 2906 684 
L 2797 116 
Q 2547 13 2283 -39 
Q 2019 -91 1741 -91 
Q 1044 -91 669 257 
Q 294 606 294 1253 
Q 294 1797 489 2255 
Q 684 2713 1069 3078 
Q 1331 3328 1684 3456 
Q 2038 3584 2456 3584 
Q 2700 3584 2940 3529 
Q 3181 3475 3431 3366 
z
" transform="scale(0.015625)"/>
       <path id="DejaVuSans-Oblique-6d" d="M 5747 2113 
L 5338 0 
L 4763 0 
L 5166 2094 
Q 5191 2228 5203 2325 
Q 5216 2422 5216 2491 
Q 5216 2772 5059 2928 
Q 4903 3084 4622 3084 
Q 4203 3084 3875 2770 
Q 3547 2456 3450 1953 
L 3066 0 
L 2491 0 
L 2900 2094 
Q 2925 2209 2937 2307 
Q 2950 2406 2950 2484 
Q 2950 2769 2794 2926 
Q 2638 3084 2363 3084 
Q 1938 3084 1609 2770 
Q 1281 2456 1184 1953 
L 800 0 
L 225 0 
L 909 3500 
L 1484 3500 
L 1375 2956 
Q 1609 3263 1923 3423 
Q 2238 3584 2597 3584 
Q 2978 3584 3223 3384 
Q 3469 3184 3519 2828 
Q 3781 3197 4126 3390 
Q 4472 3584 4856 3584 
Q 5306 3584 5551 3325 
Q 5797 3066 5797 2591 
Q 5797 2488 5784 2364 
Q 5772 2241 5747 2113 
z
" transform="scale(0.015625)"/>
       <path id="DejaVuSans-2212" d="M 678 2272 
L 4684 2272 
L 4684 1741 
L 678 1741 
L 678 2272 
z
" transform="scale(0.015625)"/>
      </defs>
      <use xlink:href="#DejaVuSans-52" transform="translate(0 0.684375)"/>
      <use xlink:href="#DejaVuSans-61" transform="translate(69.482422 0.684375)"/>
      <use xlink:href="#DejaVuSans-6d" transform="translate(130.761719 0.684375)"/>
      <use xlink:href="#DejaVuSans-61" transform="translate(228.173828 0.684375)"/>
      <use xlink:href="#DejaVuSans-6e" transform="translate(289.453125 0.684375)"/>
      <use xlink:href="#DejaVuSans-20" transform="translate(352.832031 0.684375)"/>
      <use xlink:href="#DejaVuSans-53" transform="translate(384.619141 0.684375)"/>
      <use xlink:href="#DejaVuSans-68" transform="translate(448.095703 0.684375)"/>
      <use xlink:href="#DejaVuSans-69" transform="translate(511.474609 0.684375)"/>
      <use xlink:href="#DejaVuSans-66" transform="translate(539.257812 0.684375)"/>
      <use xlink:href="#DejaVuSans-74" transform="translate(574.462891 0.684375)"/>
      <use xlink:href="#DejaVuSans-2c" transform="translate(613.671875 0.684375)"/>
      <use xlink:href="#DejaVuSans-20" transform="translate(645.458984 0.684375)"/>
      <use xlink:href="#DejaVuSans-Oblique-63" transform="translate(677.246094 0.684375)"/>
      <use xlink:href="#DejaVuSans-Oblique-6d" transform="translate(732.226562 0.684375)"/>
      <use xlink:href="#DejaVuSans-2212" transform="translate(834.288568 38.965625) scale(0.7)"/>
      <use xlink:href="#DejaVuSans-31" transform="translate(892.940911 38.965625) scale(0.7)"/>
     </g>
    </g>
   </g>
   <g id="matplotlib.axis_2">
    <g id="ytick_1">
     <g id="line2d_7">
      <path d="M 59.116875 271.669514 
L 617.116875 271.669514 
" clip-path="url(#pbb488ec402)" style="fill: none; stroke: #cccccc; stroke-linecap: round"/>
     </g>
     <g id="text_8">
      <!-- 0 -->
      <g style="fill: #262626" transform="translate(39.11875 277.938224) scale(0.165 -0.165)">
       <use xlink:href="#DejaVuSans-30"/>
      </g>
     </g>
    </g>
    <g id="ytick_2">
     <g id="line2d_8">
      <path d="M 59.116875 236.01787 
L 617.116875 236.01787 
" clip-path="url(#pbb488ec402)" style="fill: none; stroke: #cccccc; stroke-linecap: round"/>
     </g>
     <g id="text_9">
      <!-- 5 -->
      <g style="fill: #262626" transform="translate(39.11875 242.28658) scale(0.165 -0.165)">
       <use xlink:href="#DejaVuSans-35"/>
      </g>
     </g>
    </g>
    <g id="ytick_3">
     <g id="line2d_9">
      <path d="M 59.116875 200.366225 
L 617.116875 200.366225 
" clip-path="url(#pbb488ec402)" style="fill: none; stroke: #cccccc; stroke-linecap: round"/>
     </g>
     <g id="text_10">
      <!-- 10 -->
      <g style="fill: #262626" transform="translate(28.620625 206.634936) scale(0.165 -0.165)">
       <use xlink:href="#DejaVuSans-31"/>
       <use xlink:href="#DejaVuSans-30" x="63.623047"/>
      </g>
     </g>
    </g>
    <g id="ytick_4">
     <g id="line2d_10">
      <path d="M 59.116875 164.714581 
L 617.116875 164.714581 
" clip-path="url(#pbb488ec402)" style="fill: none; stroke: #cccccc; stroke-linecap: round"/>
     </g>
     <g id="text_11">
      <!-- 15 -->
      <g style="fill: #262626" transform="translate(28.620625 170.983292) scale(0.165 -0.165)">
       <use xlink:href="#DejaVuSans-31"/>
       <use xlink:href="#DejaVuSans-35" x="63.623047"/>
      </g>
     </g>
    </g>
    <g id="ytick_5">
     <g id="line2d_11">
      <path d="M 59.116875 129.062937 
L 617.116875 129.062937 
" clip-path="url(#pbb488ec402)" style="fill: none; stroke: #cccccc; stroke-linecap: round"/>
     </g>
     <g id="text_12">
      <!-- 20 -->
      <g style="fill: #262626" transform="translate(28.620625 135.331648) scale(0.165 -0.165)">
       <use xlink:href="#DejaVuSans-32"/>
       <use xlink:href="#DejaVuSans-30" x="63.623047"/>
      </g>
     </g>
    </g>
    <g id="ytick_6">
     <g id="line2d_12">
      <path d="M 59.116875 93.411293 
L 617.116875 93.411293 
" clip-path="url(#pbb488ec402)" style="fill: none; stroke: #cccccc; stroke-linecap: round"/>
     </g>
     <g id="text_13">
      <!-- 25 -->
      <g style="fill: #262626" transform="translate(28.620625 99.680004) scale(0.165 -0.165)">
       <use xlink:href="#DejaVuSans-32"/>
       <use xlink:href="#DejaVuSans-35" x="63.623047"/>
      </g>
     </g>
    </g>
    <g id="ytick_7">
     <g id="line2d_13">
      <path d="M 59.116875 57.759649 
L 617.116875 57.759649 
" clip-path="url(#pbb488ec402)" style="fill: none; stroke: #cccccc; stroke-linecap: round"/>
     </g>
     <g id="text_14">
      <!-- 30 -->
      <g style="fill: #262626" transform="translate(28.620625 64.02836) scale(0.165 -0.165)">
       <defs>
        <path id="DejaVuSans-33" d="M 2597 2516 
Q 3050 2419 3304 2112 
Q 3559 1806 3559 1356 
Q 3559 666 3084 287 
Q 2609 -91 1734 -91 
Q 1441 -91 1130 -33 
Q 819 25 488 141 
L 488 750 
Q 750 597 1062 519 
Q 1375 441 1716 441 
Q 2309 441 2620 675 
Q 2931 909 2931 1356 
Q 2931 1769 2642 2001 
Q 2353 2234 1838 2234 
L 1294 2234 
L 1294 2753 
L 1863 2753 
Q 2328 2753 2575 2939 
Q 2822 3125 2822 3475 
Q 2822 3834 2567 4026 
Q 2313 4219 1838 4219 
Q 1578 4219 1281 4162 
Q 984 4106 628 3988 
L 628 4550 
Q 988 4650 1302 4700 
Q 1616 4750 1894 4750 
Q 2613 4750 3031 4423 
Q 3450 4097 3450 3541 
Q 3450 3153 3228 2886 
Q 3006 2619 2597 2516 
z
" transform="scale(0.015625)"/>
       </defs>
       <use xlink:href="#DejaVuSans-33"/>
       <use xlink:href="#DejaVuSans-30" x="63.623047"/>
      </g>
     </g>
    </g>
    <g id="ytick_8">
     <g id="line2d_14">
      <path d="M 59.116875 22.108005 
L 617.116875 22.108005 
" clip-path="url(#pbb488ec402)" style="fill: none; stroke: #cccccc; stroke-linecap: round"/>
     </g>
     <g id="text_15">
      <!-- 35 -->
      <g style="fill: #262626" transform="translate(28.620625 28.376716) scale(0.165 -0.165)">
       <use xlink:href="#DejaVuSans-33"/>
       <use xlink:href="#DejaVuSans-35" x="63.623047"/>
      </g>
     </g>
    </g>
    <g id="text_16">
     <!-- Intensity, % -->
     <g style="fill: #262626" transform="translate(20.877188 199.244531) rotate(-90) scale(0.18 -0.18)">
      <defs>
       <path id="DejaVuSans-49" d="M 628 4666 
L 1259 4666 
L 1259 0 
L 628 0 
L 628 4666 
z
" transform="scale(0.015625)"/>
       <path id="DejaVuSans-65" d="M 3597 1894 
L 3597 1613 
L 953 1613 
Q 991 1019 1311 708 
Q 1631 397 2203 397 
Q 2534 397 2845 478 
Q 3156 559 3463 722 
L 3463 178 
Q 3153 47 2828 -22 
Q 2503 -91 2169 -91 
Q 1331 -91 842 396 
Q 353 884 353 1716 
Q 353 2575 817 3079 
Q 1281 3584 2069 3584 
Q 2775 3584 3186 3129 
Q 3597 2675 3597 1894 
z
M 3022 2063 
Q 3016 2534 2758 2815 
Q 2500 3097 2075 3097 
Q 1594 3097 1305 2825 
Q 1016 2553 972 2059 
L 3022 2063 
z
" transform="scale(0.015625)"/>
       <path id="DejaVuSans-73" d="M 2834 3397 
L 2834 2853 
Q 2591 2978 2328 3040 
Q 2066 3103 1784 3103 
Q 1356 3103 1142 2972 
Q 928 2841 928 2578 
Q 928 2378 1081 2264 
Q 1234 2150 1697 2047 
L 1894 2003 
Q 2506 1872 2764 1633 
Q 3022 1394 3022 966 
Q 3022 478 2636 193 
Q 2250 -91 1575 -91 
Q 1294 -91 989 -36 
Q 684 19 347 128 
L 347 722 
Q 666 556 975 473 
Q 1284 391 1588 391 
Q 1994 391 2212 530 
Q 2431 669 2431 922 
Q 2431 1156 2273 1281 
Q 2116 1406 1581 1522 
L 1381 1569 
Q 847 1681 609 1914 
Q 372 2147 372 2553 
Q 372 3047 722 3315 
Q 1072 3584 1716 3584 
Q 2034 3584 2315 3537 
Q 2597 3491 2834 3397 
z
" transform="scale(0.015625)"/>
       <path id="DejaVuSans-79" d="M 2059 -325 
Q 1816 -950 1584 -1140 
Q 1353 -1331 966 -1331 
L 506 -1331 
L 506 -850 
L 844 -850 
Q 1081 -850 1212 -737 
Q 1344 -625 1503 -206 
L 1606 56 
L 191 3500 
L 800 3500 
L 1894 763 
L 2988 3500 
L 3597 3500 
L 2059 -325 
z
" transform="scale(0.015625)"/>
       <path id="DejaVuSans-25" d="M 4653 2053 
Q 4381 2053 4226 1822 
Q 4072 1591 4072 1178 
Q 4072 772 4226 539 
Q 4381 306 4653 306 
Q 4919 306 5073 539 
Q 5228 772 5228 1178 
Q 5228 1588 5073 1820 
Q 4919 2053 4653 2053 
z
M 4653 2450 
Q 5147 2450 5437 2106 
Q 5728 1763 5728 1178 
Q 5728 594 5436 251 
Q 5144 -91 4653 -91 
Q 4153 -91 3862 251 
Q 3572 594 3572 1178 
Q 3572 1766 3864 2108 
Q 4156 2450 4653 2450 
z
M 1428 4353 
Q 1159 4353 1004 4120 
Q 850 3888 850 3481 
Q 850 3069 1003 2837 
Q 1156 2606 1428 2606 
Q 1700 2606 1854 2837 
Q 2009 3069 2009 3481 
Q 2009 3884 1853 4118 
Q 1697 4353 1428 4353 
z
M 4250 4750 
L 4750 4750 
L 1831 -91 
L 1331 -91 
L 4250 4750 
z
M 1428 4750 
Q 1922 4750 2215 4408 
Q 2509 4066 2509 3481 
Q 2509 2891 2217 2550 
Q 1925 2209 1428 2209 
Q 931 2209 642 2551 
Q 353 2894 353 3481 
Q 353 4063 643 4406 
Q 934 4750 1428 4750 
z
" transform="scale(0.015625)"/>
      </defs>
      <use xlink:href="#DejaVuSans-49"/>
      <use xlink:href="#DejaVuSans-6e" x="29.492188"/>
      <use xlink:href="#DejaVuSans-74" x="92.871094"/>
      <use xlink:href="#DejaVuSans-65" x="132.080078"/>
      <use xlink:href="#DejaVuSans-6e" x="193.603516"/>
      <use xlink:href="#DejaVuSans-73" x="256.982422"/>
      <use xlink:href="#DejaVuSans-69" x="309.082031"/>
      <use xlink:href="#DejaVuSans-74" x="336.865234"/>
      <use xlink:href="#DejaVuSans-79" x="376.074219"/>
      <use xlink:href="#DejaVuSans-2c" x="435.253906"/>
      <use xlink:href="#DejaVuSans-20" x="467.041016"/>
      <use xlink:href="#DejaVuSans-25" x="498.828125"/>
     </g>
    </g>
   </g>
   <g id="PolyCollection_1"/>
   <g id="line2d_15">
    <path d="M 84.480511 271.606015 
L 85.237635 271.56272 
L 85.616197 271.531048 
L 85.994758 271.362768 
L 92.051746 271.504759 
L 92.619589 271.420239 
L 93.187431 271.536875 
L 95.08024 271.479677 
L 96.973049 271.5054 
L 97.35161 271.330841 
L 98.108734 271.490545 
L 98.676576 271.58129 
L 100.190823 271.472102 
L 104.922845 271.514973 
L 105.869249 271.574182 
L 107.383496 271.462823 
L 108.14062 271.574991 
L 108.708463 271.438507 
L 110.41199 271.566611 
L 110.979833 271.514361 
L 112.115518 271.514731 
L 114.76545 271.504908 
L 121.390281 271.407313 
L 121.768842 271.350325 
L 122.525966 271.508692 
L 123.283089 271.4185 
L 123.850932 271.429652 
L 124.418775 271.512614 
L 125.175898 271.361275 
L 127.636549 271.549415 
L 128.204392 271.534812 
L 128.772235 271.533899 
L 130.097201 271.478981 
L 130.665043 271.447322 
L 131.232886 271.538783 
L 131.800728 271.442221 
L 132.17929 271.395569 
L 132.936414 271.440037 
L 135.397065 271.504721 
L 135.775627 271.551781 
L 136.722031 271.352388 
L 137.479155 271.354197 
L 138.804121 271.494677 
L 139.371963 271.375823 
L 140.129087 271.466985 
L 142.211176 271.519648 
L 142.589738 271.438586 
L 142.9683 271.319589 
L 145.996794 271.44009 
L 146.564636 271.373223 
L 147.511041 271.439259 
L 148.078883 271.343448 
L 148.646726 271.444331 
L 149.971692 271.421154 
L 150.728815 271.353821 
L 151.107377 271.304305 
L 152.810905 271.377143 
L 153.378747 271.430968 
L 154.325152 271.401019 
L 155.650118 271.371998 
L 156.02868 271.213413 
L 156.785803 271.407918 
L 157.164365 271.465645 
L 158.867893 271.39556 
L 160.192859 271.399419 
L 161.139263 271.312177 
L 161.707106 271.439258 
L 162.65351 271.348417 
L 163.221353 271.380369 
L 163.789195 271.330274 
L 164.357038 271.424263 
L 167.00697 271.449604 
L 168.521217 271.321739 
L 171.738992 271.354653 
L 172.306834 271.321618 
L 173.253239 271.356421 
L 173.6318 271.276127 
L 174.199643 271.369379 
L 174.767486 271.401688 
L 175.146047 271.436733 
L 175.71389 271.358404 
L 176.849575 271.425522 
L 177.606699 271.358336 
L 178.174541 271.373847 
L 178.553103 271.46035 
L 179.688788 271.344433 
L 183.095844 271.321979 
L 183.474406 271.407003 
L 184.799372 271.286107 
L 185.935057 271.35785 
L 186.313619 271.311254 
L 186.881461 271.450255 
L 187.449304 271.29545 
L 188.395708 271.287645 
L 188.77427 271.20865 
L 190.288517 271.365767 
L 190.856359 271.328425 
L 191.234921 271.436217 
L 191.802764 271.305871 
L 192.370606 271.319332 
L 192.749168 271.300355 
L 193.12773 271.398816 
L 193.695572 271.211844 
L 194.452696 271.335551 
L 196.724066 271.329474 
L 197.102628 271.410301 
L 197.670471 271.359955 
L 198.238313 271.388422 
L 200.888245 271.353832 
L 204.484582 271.325598 
L 205.052425 271.35674 
L 207.323795 271.372871 
L 207.702357 271.353675 
L 208.270199 271.239078 
L 209.784446 271.208052 
L 210.730851 271.318125 
L 211.298693 271.423301 
L 212.245098 271.261605 
L 220.005613 271.327328 
L 220.384175 271.389551 
L 221.330579 271.276986 
L 222.844826 271.210456 
L 223.79123 271.291553 
L 224.169792 271.348067 
L 224.737635 271.249226 
L 230.605342 271.331887 
L 231.173184 271.344629 
L 231.551746 271.410965 
L 232.49815 271.280401 
L 233.065993 271.328266 
L 233.633836 271.288732 
L 235.715925 271.294779 
L 237.987296 271.268237 
L 238.555138 271.294372 
L 239.122981 271.20767 
L 241.20507 271.291649 
L 241.772913 271.16555 
L 242.908598 271.414695 
L 243.28716 271.289664 
L 243.665722 271.243109 
L 245.55853 271.228504 
L 246.315654 271.176452 
L 247.072777 271.205394 
L 247.64062 271.228179 
L 248.019182 271.385221 
L 248.776305 271.207056 
L 256.158259 271.300542 
L 257.104663 271.26843 
L 257.672506 271.201584 
L 258.240349 271.244936 
L 261.079562 271.174293 
L 261.647404 271.318619 
L 262.215247 271.198836 
L 263.540213 271.245974 
L 263.729494 271.375014 
L 265.05446 271.139634 
L 266.947268 271.317429 
L 267.32583 271.122153 
L 268.272235 271.23776 
L 268.840077 271.219519 
L 269.40792 271.227339 
L 271.868571 271.130998 
L 272.247133 271.305973 
L 272.625695 271.031985 
L 273.76138 271.134436 
L 274.139941 271.172495 
L 274.518503 271.247326 
L 274.897065 271.155254 
L 275.275627 271.235001 
L 275.843469 271.140639 
L 276.222031 271.282418 
L 276.789874 271.217025 
L 277.168435 271.198063 
L 277.546997 271.109495 
L 279.818368 271.163634 
L 280.196929 271.117647 
L 280.954053 271.271122 
L 281.900457 271.200183 
L 282.279019 271.291027 
L 283.982547 270.998732 
L 285.496794 271.181923 
L 285.875355 271.121996 
L 286.443198 271.189539 
L 287.200321 271.157485 
L 287.578883 271.306693 
L 288.336007 271.238584 
L 296.285803 271.206417 
L 296.475084 271.289435 
L 297.80005 271.089524 
L 298.557174 271.122011 
L 302.15351 271.025781 
L 302.532072 271.135407 
L 303.478476 271.064018 
L 303.857038 271.125252 
L 304.803442 271.138773 
L 305.371285 271.17643 
L 308.77834 271.08207 
L 309.346183 271.122843 
L 309.724745 270.995484 
L 310.292587 271.049644 
L 310.671149 271.057063 
L 311.238992 270.987215 
L 311.806834 271.015986 
L 312.185396 271.187981 
L 313.321081 270.875036 
L 314.078205 270.96024 
L 315.21389 270.985625 
L 316.538856 270.847879 
L 319.756631 270.676484 
L 320.513754 270.599524 
L 320.892316 270.716207 
L 322.974406 269.776474 
L 323.92081 268.72083 
L 324.299372 267.693734 
L 325.056495 263.881288 
L 325.435057 259.120394 
L 325.813619 248.755025 
L 326.002899 238.786742 
L 326.19218 222.566488 
L 326.381461 195.842368 
L 326.760023 100.968105 
L 326.949304 36.913725 
L 327.138585 19.8 
L 327.517146 99.137896 
L 327.895708 193.794307 
L 328.27427 237.163342 
L 328.652832 254.766358 
L 329.031393 261.952979 
L 329.409955 265.758927 
L 329.788517 267.697577 
L 330.167079 268.607764 
L 331.113483 270.15024 
L 331.870606 270.368081 
L 332.438449 270.711442 
L 333.195572 270.786657 
L 334.141977 270.873629 
L 336.602628 271.095028 
L 336.98119 271.148549 
L 337.549032 271.09649 
L 338.306156 271.124144 
L 338.684718 271.07487 
L 342.091773 271.153011 
L 343.795301 271.156526 
L 344.741705 271.164962 
L 345.120267 271.169445 
L 345.877391 271.241381 
L 346.255952 271.148789 
L 348.338042 271.202943 
L 349.095165 271.218373 
L 349.473727 271.282048 
L 351.177255 271.227373 
L 352.123659 271.270617 
L 352.502221 271.191282 
L 353.070064 271.269006 
L 353.448625 271.246221 
L 354.205749 271.304551 
L 356.477119 271.262139 
L 356.855681 271.153151 
L 357.234243 271.355301 
L 358.180647 271.310683 
L 358.74849 271.060683 
L 359.694894 271.29139 
L 360.262737 271.195172 
L 361.398422 271.177468 
L 361.966264 271.201274 
L 363.669792 271.142353 
L 364.048354 271.150404 
L 364.616197 271.332812 
L 365.562601 271.221931 
L 365.941163 271.211719 
L 366.319724 271.142975 
L 367.833971 271.34383 
L 369.158937 271.310516 
L 371.051746 271.310719 
L 371.430308 271.306822 
L 371.80887 271.308644 
L 372.187431 271.266435 
L 372.565993 271.218167 
L 372.944555 271.235727 
L 373.323117 271.244039 
L 373.512397 271.316465 
L 374.08024 271.168524 
L 374.458802 271.284589 
L 375.594487 271.306003 
L 375.973049 271.250122 
L 377.865857 271.369808 
L 378.244419 271.255534 
L 379.001543 271.308924 
L 379.380104 271.257436 
L 379.947947 271.360861 
L 380.70507 271.32799 
L 381.272913 271.283725 
L 382.219317 271.315283 
L 383.922845 271.267253 
L 384.301407 271.2425 
L 384.679969 271.400616 
L 385.247811 271.421964 
L 385.815654 271.336614 
L 386.194216 271.296802 
L 386.572777 271.339074 
L 386.951339 271.286849 
L 387.329901 271.475401 
L 388.087024 271.282482 
L 388.465586 271.355772 
L 388.844148 271.359898 
L 389.222709 271.424738 
L 389.601271 271.296184 
L 390.547676 271.306364 
L 391.683361 271.306107 
L 392.251203 271.405067 
L 392.629765 271.31503 
L 393.76545 271.398358 
L 394.901136 271.347721 
L 395.279697 271.404487 
L 395.658259 271.39049 
L 396.036821 271.414669 
L 396.415382 271.455035 
L 398.876034 271.410367 
L 399.254595 271.46753 
L 400.011719 271.363005 
L 400.768842 271.384355 
L 400.958123 271.476905 
L 401.525966 271.33609 
L 402.093809 271.415225 
L 402.661651 271.355362 
L 403.608055 271.474609 
L 403.986617 271.342436 
L 404.365179 271.471716 
L 404.743741 271.34088 
L 405.690145 271.395772 
L 406.257988 271.433594 
L 407.582954 271.40644 
L 411.368571 271.388046 
L 411.747133 271.460543 
L 412.125695 271.472641 
L 412.504256 271.499362 
L 413.829222 271.447139 
L 415.53275 271.450123 
L 416.289874 271.391791 
L 416.857716 271.443932 
L 417.425559 271.428232 
L 418.750525 271.478308 
L 421.400457 271.431726 
L 421.779019 271.306831 
L 422.536142 271.550444 
L 423.861108 271.313005 
L 424.23967 271.480974 
L 424.618232 271.497506 
L 424.996794 271.441215 
L 425.375355 271.469597 
L 425.753917 271.410655 
L 427.457445 271.516649 
L 427.646726 271.376774 
L 429.350254 271.476502 
L 430.296658 271.472344 
L 431.621624 271.550811 
L 432.000186 271.481507 
L 432.378747 271.466148 
L 432.757309 271.412192 
L 433.514433 271.51126 
L 436.542927 271.530522 
L 436.921488 271.449873 
L 437.678612 271.502948 
L 438.814297 271.435767 
L 439.760701 271.576506 
L 440.139263 271.552853 
L 440.896387 271.532999 
L 454.146047 271.611801 
L 454.71389 271.545146 
L 455.092452 271.484349 
L 456.038856 271.565747 
L 457.174541 271.535784 
L 458.499507 271.532065 
L 458.688788 271.467409 
L 459.256631 271.643815 
L 461.717282 271.602805 
L 462.474406 271.532144 
L 462.852967 271.524677 
L 463.610091 271.585468 
L 464.556495 271.527351 
L 465.313619 271.576373 
L 465.69218 271.491675 
L 466.260023 271.602493 
L 466.827866 271.555525 
L 467.206427 271.589987 
L 467.77427 271.517413 
L 468.152832 271.651196 
L 470.04564 271.646785 
L 470.802764 271.557767 
L 471.181325 271.529273 
L 471.938449 271.611846 
L 472.317011 271.662185 
L 472.506292 271.530565 
L 477.616875 271.550185 
L 477.806156 271.498905 
L 478.184718 271.676543 
L 478.563279 271.614143 
L 479.320403 271.579809 
L 479.888245 271.556648 
L 480.83465 271.626071 
L 481.970335 271.528641 
L 482.727458 271.622669 
L 484.052425 271.595336 
L 484.430986 271.61815 
L 485.18811 271.586253 
L 485.566671 271.680291 
L 485.945233 271.618846 
L 486.323795 271.612286 
L 487.080918 271.544995 
L 491.434378 271.684347 
L 493.137906 271.617127 
L 494.462872 271.682092 
L 494.652153 271.570482 
L 495.598557 271.678172 
L 496.734243 271.684235 
L 498.059209 271.548761 
L 498.816332 271.682876 
L 499.194894 271.609284 
L 499.762737 271.636861 
L 500.141298 271.606506 
L 500.51986 271.661359 
L 502.223388 271.611016 
L 503.548354 271.628342 
L 503.737635 271.554294 
L 504.305477 271.717126 
L 505.441163 271.650012 
L 505.819724 271.648552 
L 509.605342 271.629034 
L 509.983903 271.546133 
L 510.173184 271.676274 
L 510.551746 271.613062 
L 511.119589 271.729546 
L 511.49815 271.63715 
L 512.444555 271.654622 
L 513.201678 271.673567 
L 513.769521 271.649328 
L 514.905206 271.657843 
L 516.040891 271.649667 
L 516.419453 271.605707 
L 517.365857 271.651335 
L 518.122981 271.670874 
L 518.501543 271.725392 
L 519.637228 271.6094 
L 520.01579 271.634646 
L 520.20507 271.598177 
L 520.583632 271.69158 
L 520.962194 271.717949 
L 521.530036 271.708891 
L 522.476441 271.679709 
L 523.422845 271.739474 
L 523.801407 271.618349 
L 523.990688 271.745478 
L 524.937092 271.654545 
L 527.397743 271.737179 
L 527.776305 271.64493 
L 529.858395 271.601187 
L 530.426237 271.629539 
L 530.804799 271.726202 
L 531.561922 271.595422 
L 531.940484 271.646357 
L 533.076169 271.719429 
L 534.401136 271.659204 
L 535.158259 271.739794 
L 539.133157 271.597985 
L 539.701 271.692539 
L 541.025966 271.575905 
L 541.593809 271.705487 
L 542.729494 271.643924 
L 544.243741 271.620234 
L 545.568707 271.609588 
L 545.947268 271.705625 
L 546.32583 271.72138 
L 546.893673 271.688255 
L 548.029358 271.729269 
L 548.218639 271.755757 
L 548.597201 271.642482 
L 549.922167 271.687802 
L 550.300728 271.678549 
L 551.057852 271.718483 
L 551.814975 271.578681 
L 552.193537 271.745777 
L 552.950661 271.707308 
L 554.654188 271.668236 
L 554.843469 271.581509 
L 555.789874 271.686971 
L 556.357716 271.660118 
L 556.546997 271.688391 
L 556.925559 271.535077 
L 557.11484 271.713329 
L 561.657581 271.65386 
L 561.846861 271.57279 
L 562.414704 271.662503 
L 565.82176 271.690583 
L 566.389602 271.691171 
L 566.957445 271.733707 
L 568.09313 271.652015 
L 569.607377 271.746243 
L 570.364501 271.706637 
L 570.743062 271.64455 
L 572.257309 271.771487 
L 573.203714 271.652414 
L 577.178612 271.679476 
L 577.935735 271.74922 
L 578.503578 271.717461 
L 579.07142 271.712328 
L 580.774948 271.697493 
L 581.15351 271.652528 
L 581.910633 271.695585 
L 582.667757 271.678859 
L 582.857038 271.766667 
L 583.2356 271.678033 
L 583.803442 271.725325 
L 584.749847 271.62711 
L 584.939127 271.783902 
L 586.074813 271.736256 
L 587.210498 271.693312 
L 591.753239 271.712097 
L 591.753239 271.712097 
" clip-path="url(#pbb488ec402)" style="fill: none; stroke: #ff0000; stroke-width: 1.5; stroke-linecap: round"/>
   </g>
   <g id="patch_3">
    <path d="M 59.116875 284.4 
L 59.116875 7.2 
" style="fill: none; stroke: #cccccc; stroke-width: 1.25; stroke-linejoin: miter; stroke-linecap: square"/>
   </g>
   <g id="patch_4">
    <path d="M 617.116875 284.4 
L 617.116875 7.2 
" style="fill: none; stroke: #cccccc; stroke-width: 1.25; stroke-linejoin: miter; stroke-linecap: square"/>
   </g>
   <g id="patch_5">
    <path d="M 59.116875 284.4 
L 617.116875 284.4 
" style="fill: none; stroke: #cccccc; stroke-width: 1.25; stroke-linejoin: miter; stroke-linecap: square"/>
   </g>
   <g id="patch_6">
    <path d="M 59.116875 7.2 
L 617.116875 7.2 
" style="fill: none; stroke: #cccccc; stroke-width: 1.25; stroke-linejoin: miter; stroke-linecap: square"/>
   </g>
  </g>
 </g>
 <defs>
  <clipPath id="pbb488ec402">
   <rect x="59.116875" y="7.2" width="558" height="277.2"/>
  </clipPath>
 </defs>
</svg>
